PathFileType	4	(X/Y/Z)	C:/Users/opensim2020/Desktop/walking_exp_matlab/subject03_walking09_straight_02.trc																																																																																																																																											
DataRate	CameraRate	NumFrames	NumMarkers	Units	OrigDataRate	OrigDataStartFrame	OrigNumFrames																																																																																																																																							
100	100	5	47	mm	100	1927	364																																																																																																																																							
Frame#	Time	LFHD			RFHD			LBHD			RBHD			C7			T10			CLAV			STRN			RBAK			LSHO			LUPA			LELB			LFRM			LWRA			LWRB			LFIN			RSHO			RUPA			RELB			RFRM			RWRA			RWRB			RFIN			LASI			RASI			LPSI			RPSI			LTHI			LKNE			LTIB			LANK			LHEE			LTOE			RTHI			RKNE			RTIB			RANK			RHEE			RTOE			*39			*40			*41			*42			*43			*44			*45			*46		
		X1	Y1	Z1	X2	Y2	Z2	X3	Y3	Z3	X4	Y4	Z4	X5	Y5	Z5	X6	Y6	Z6	X7	Y7	Z7	X8	Y8	Z8	X9	Y9	Z9	X10	Y10	Z10	X11	Y11	Z11	X12	Y12	Z12	X13	Y13	Z13	X14	Y14	Z14	X15	Y15	Z15	X16	Y16	Z16	X17	Y17	Z17	X18	Y18	Z18	X19	Y19	Z19	X20	Y20	Z20	X21	Y21	Z21	X22	Y22	Z22	X23	Y23	Z23	X24	Y24	Z24	X25	Y25	Z25	X26	Y26	Z26	X27	Y27	Z27	X28	Y28	Z28	X29	Y29	Z29	X30	Y30	Z30	X31	Y31	Z31	X32	Y32	Z32	X33	Y33	Z33	X34	Y34	Z34	X35	Y35	Z35	X36	Y36	Z36	X37	Y37	Z37	X38	Y38	Z38	X39	Y39	Z39	X40	Y40	Z40	X41	Y41	Z41	X42	Y42	Z42	X43	Y43	Z43	X44	Y44	Z44	X45	Y45	Z45	X46	Y46	Z46	X47	Y47	Z47
																																																																																																																																														
92	0.91	-876.34131	1629.6842	-1536.87158	-898.51923	1635.74902	-1406.06628	-1000.13892	1576.8363	-1552.21594	-1016.94659	1582.84802	-1422.66663	-1033.47192	1426.48816	-1496.61633	-1075.04968	1114.26428	-1495.16968	-913.69641	1346.91882	-1477.63232	-874.52612	1181.03564	-1474.36572	-1102.61975	1256.16589	-1403.01794	-934.58923	1381.44568	-1637.31128	-913.45752	1189.08911	-1710.94556	-885.69153	1069.72009	-1724.37109	-836.66309	949.27118	-1718.39197	-801.87018	836.63745	-1683.77283	-814.56653	839.18103	-1738.54004	-783.10291	761.36725	-1725.96301	-976.51477	1373.79272	-1325.60229	-979.28113	1151.40759	-1250.65564	-963.06311	1041.32361	-1232.224	-938.91846	906.55695	-1224.22461	-896.17065	813.26874	-1250.59143	-935.67285	806.52063	-1213.70837	-906.64478	737.35211	-1217.65442	-894.40765	948.10126	-1591.71228	-921.13776	947.52002	-1353.67676	-1060.97034	973.76581	-1558.29358	-1076.68762	975.34662	-1410.10388	-954.28693	646.90973	-1627.82703	-957.30066	470.11084	-1583.51367	-1012.39307	282.11752	-1585.13684	-1034.54114	72.68191	-1541.42798	-1076.00134	37.93541	-1506.23169	-883.06073	35.4337	-1503.34021	-931.69183	653.63995	-1302.37061	-872.08447	482.29227	-1321.60767	-966.88507	314.44772	-1326.33252	-1060.5448	122.0073	-1378.09583	-1105.20313	101.332	-1437.06042	-943.19403	47.07505	-1372.50684	-969.7937	1685.4928	-1501.94946	NaN	NaN	NaN	NaN	NaN	NaN	NaN	NaN	NaN	NaN	NaN	NaN	NaN	NaN	NaN	NaN	NaN	NaN	NaN	NaN	NaN
93	0.92	-869.99554	1629.42554	-1536.67053	-892.29089	1635.4873	-1405.84351	-994.12726	1576.99219	-1552.59387	-1010.83929	1582.7843	-1422.67773	-1027.46875	1426.45264	-1496.90613	-1069.09656	1114.11096	-1495.50891	-907.84814	1346.74023	-1477.64551	-869.17181	1180.74707	-1474.63745	-1096.94775	1255.90027	-1403.64453	-928.22247	1381.37366	-1637.26404	-905.35315	1189.52734	-1711.03345	-876.32837	1070.48962	-1724.54858	-825.38898	950.78113	-1718.46252	-788.88361	838.9162	-1683.63818	-801.67462	841.01141	-1738.22034	-768.8833	763.76428	-1725.4585	-971.38708	1373.63879	-1325.90503	-973.84979	1151.1748	-1250.8313	-957.73798	1041.11011	-1232.35608	-932.95526	906.44562	-1224.47559	-889.93561	813.47198	-1251.08606	-929.27222	806.43622	-1214.0083	-899.9845	737.59467	-1217.99683	-888.81543	947.82568	-1592.1991	-914.89349	947.81329	-1354.06909	-1055.20605	973.41278	-1558.22009	-1070.67419	975.25452	-1410.14917	-949.7616	646.63287	-1627.62036	-954.22852	469.90854	-1583.44531	-1010.65271	282.23846	-1585.00757	-1034.43445	73.10674	-1541.40857	-1075.94446	38.40343	-1506.01257	-882.9364	35.37587	-1503.35193	-922.51343	654.22003	-1303.0647	-862.40717	483.28925	-1322.61768	-951.66431	312.26416	-1327.1355	-1036.7406	115.65278	-1378.89648	-1080.20117	92.89485	-1438.03223	-916.29407	46.34345	-1371.95068	NaN	NaN	NaN	NaN	NaN	NaN	NaN	NaN	NaN	NaN	NaN	NaN	NaN	NaN	NaN	NaN	NaN	NaN	NaN	NaN	NaN	NaN	NaN	NaN
94	0.93	-863.65552	1629.19312	-1536.42444	-886.12109	1635.16748	-1405.66113	-987.849	1576.89417	-1552.52563	-1004.6001	1582.57166	-1422.58459	-1021.39838	1426.21777	-1497.12	-1063.15576	1113.95325	-1495.7655	-901.97052	1346.50916	-1477.5603	-863.06323	1180.51123	-1474.54431	-1091.22778	1255.60181	-1404.302	-921.81421	1381.24829	-1637.15784	-897.3678	1189.85791	-1710.93066	-866.91425	1071.03906	-1724.38013	-814.3869	952.32745	-1718.3822	-775.76379	841.22327	-1683.30566	-789.03564	842.85455	-1737.76477	-754.85815	766.28522	-1724.95093	-965.78467	1373.13452	-1325.96289	-968.55524	1150.89636	-1250.96631	-952.2868	1040.81812	-1232.6123	-926.99896	906.3338	-1224.68164	-883.36554	813.65845	-1251.32629	-922.7066	806.28564	-1214.48181	-892.97205	737.44794	-1218.51709	-882.95972	947.52069	-1592.64832	-908.72235	948.08075	-1354.4093	-1049.4563	973.04596	-1558.17346	-1064.61218	975.05975	-1410.08606	-945.24866	646.37268	-1627.33606	-951.27643	469.77332	-1583.39722	-1009.04254	282.36453	-1584.81384	-1034.21021	73.25303	-1541.35486	-1075.87024	38.9437	-1505.84949	-882.66833	35.48444	-1503.38538	-914.42542	654.92181	-1302.91589	-853.25366	484.22406	-1323.54089	-936.43188	309.96384	-1328.16919	-1012.716	109.54665	-1379.69885	-1054.94202	84.86374	-1439.50293	-889.32037	45.85226	-1371.23755	-957.32697	1686.05908	-1501.70374	NaN	NaN	NaN	NaN	NaN	NaN	NaN	NaN	NaN	NaN	NaN	NaN	NaN	NaN	NaN	NaN	NaN	NaN	NaN	NaN	NaN
95	0.94	-857.3183	1628.88574	-1536.16577	-879.90851	1634.81934	-1405.40283	-981.53784	1576.72241	-1552.48108	-998.49695	1582.38733	-1422.54163	-1015.45074	1426.07898	-1497.35242	-1057.20557	1113.74963	-1495.85864	-896.03278	1346.15503	-1477.42676	-857.13129	1180.28931	-1474.61401	-1085.53943	1255.28271	-1404.81934	-915.46399	1381.15137	-1637.08728	-889.23907	1189.92822	-1710.59326	-857.96429	1071.82458	-1724.48901	-803.53925	953.85889	-1718.13416	-762.91345	843.53754	-1682.81909	-776.60419	844.71667	-1737.21887	-741.05902	768.82373	-1724.29395	-960.0307	1372.62463	-1325.85413	-963.1817	1150.51538	-1251.17761	-946.84027	1040.49573	-1232.78784	-920.96063	906.07178	-1224.97485	-876.47266	813.84747	-1251.36462	-916.19202	806.05133	-1214.9292	-885.91125	737.38635	-1219.04529	-877.10236	947.22919	-1593.05029	-902.51471	948.26532	-1354.67139	-1043.70557	972.62988	-1558.03186	-1058.53052	974.80322	-1409.94592	-940.73712	646.09131	-1627.01636	-948.12939	469.34662	-1582.98706	-1007.55896	282.57339	-1584.65247	-1033.76978	73.28246	-1540.74548	-1075.61414	39.14729	-1505.46655	-882.42816	35.51971	-1503.44202	-905.79852	655.47876	-1302.66565	-844.40753	484.91806	-1324.48413	-921.36993	307.62756	-1329.13074	-988.10468	103.8827	-1380.65088	-1028.73279	77.13053	-1440.79114	-862.37341	45.78826	-1370.48474	-950.96771	1685.85046	-1501.50647	NaN	NaN	NaN	NaN	NaN	NaN	NaN	NaN	NaN	NaN	NaN	NaN	NaN	NaN	NaN	NaN	NaN	NaN	NaN	NaN	NaN
96	0.95	-850.97046	1628.50586	-1535.84814	-873.76947	1634.43518	-1405.10632	-974.95825	1576.34778	-1551.90686	-992.59839	1582.16431	-1422.69519	-1009.30835	1425.76526	-1497.36926	-1051.25525	1113.48755	-1495.83032	-890.12665	1345.78503	-1477.35132	-851.32227	1179.83411	-1474.72717	-1079.79883	1254.95874	-1405.3374	-909.11151	1381.01611	-1636.91235	-881.81165	1190.38965	-1710.7146	-849.05042	1072.45068	-1724.27869	-792.83716	955.30304	-1717.76111	-750.30231	845.93066	-1682.22083	-764.4458	846.54419	-1736.45618	-727.48969	771.35925	-1723.46814	-954.57123	1372.33508	-1325.87122	-957.91162	1150.02808	-1251.3103	-941.40393	1040.07556	-1233.01636	-914.87756	905.83032	-1225.31238	-869.81482	813.8205	-1251.8512	-909.52124	805.77264	-1215.51196	-878.75659	737.35962	-1219.73181	-871.68427	946.92273	-1593.39978	-896.27856	948.25806	-1354.86414	-1037.88953	972.18634	-1557.84656	-1052.43555	974.45166	-1409.79578	-936.33197	645.81848	-1626.66699	-945.52991	469.40814	-1583.08423	-1006.11823	282.78461	-1584.47437	-1033.50916	73.69087	-1540.33215	-1075.57141	39.67171	-1505.22498	-882.27014	35.24204	-1503.30884	-898.78894	655.80334	-1302.32275	-836.08478	485.41833	-1325.3158	-906.50897	305.37784	-1329.99377	-963.5293	98.55175	-1381.67676	-1002.29077	70.04953	-1442.13586	-835.48169	45.8181	-1369.84644	-944.58472	1685.53149	-1501.34082	NaN	NaN	NaN	NaN	NaN	NaN	NaN	NaN	NaN	NaN	NaN	NaN	NaN	NaN	NaN	NaN	NaN	NaN	NaN	NaN	NaN
